<?xml version="1.0" encoding="UTF-8"?>
<svg xmlns="http://www.w3.org/2000/svg" width="157" height="29" viewBox="0 0 157 29" fill="none">
  <path d="M0.4 14C0.426667 9.54667 1.65333 6.10667 4.08 3.68C6.53333 1.22666 9.90667 -1.90735e-06 14.2 -1.90735e-06H16.8V3.52H13.72C10.76 3.52 8.48 4.50666 6.88 6.48C5.30667 8.42667 4.49333 10.9333 4.44 14C4.49333 17.0667 5.30667 19.5867 6.88 21.56C8.48 23.5067 10.76 24.48 13.72 24.48H16.8V28H14.2C9.90667 28 6.53333 26.7867 4.08 24.36C1.65333 21.9067 0.426667 18.4533 0.4 14ZM23.6156 11.32C25.4823 9.37333 27.8156 8.4 30.6156 8.4C31.9756 8.4 33.2423 8.66667 34.4156 9.2C35.6156 9.70667 36.6556 10.4133 37.5356 11.32C38.4423 12.2267 39.149 13.2933 39.6556 14.52C40.1623 15.72 40.4156 17.0133 40.4156 18.4C40.4156 19.7867 40.1623 21.0933 39.6556 22.32C39.1756 23.52 38.4956 24.5733 37.6156 25.48C36.7356 26.3867 35.6956 27.1067 34.4956 27.64C33.2956 28.1467 32.0023 28.4 30.6156 28.4C29.2023 28.4 27.8956 28.1467 26.6956 27.64C25.5223 27.1067 24.4956 26.3867 23.6156 25.48C22.7356 24.5733 22.0423 23.52 21.5356 22.32C21.0556 21.0933 20.8156 19.7867 20.8156 18.4C20.8156 15.5733 21.749 13.2133 23.6156 11.32ZM30.6156 11.76C28.749 11.76 27.2423 12.3733 26.0956 13.6C24.9756 14.8267 24.4156 16.4267 24.4156 18.4C24.4156 20.3733 24.9756 21.9733 26.0956 23.2C27.2423 24.4267 28.749 25.04 30.6156 25.04C32.509 25.04 34.0156 24.4267 35.1356 23.2C36.2556 21.9467 36.8156 20.3467 36.8156 18.4C36.8156 16.4533 36.2556 14.8667 35.1356 13.64C34.0156 12.3867 32.509 11.76 30.6156 11.76ZM44.0188 28V17.08C44.0188 14.0133 44.5921 11.8933 45.7388 10.72C46.2988 10.1333 46.9788 9.69333 47.7788 9.4C48.5788 9.10667 49.2721 8.93333 49.8588 8.88C50.4721 8.82667 51.2988 8.8 52.3388 8.8H55.8588V12.16H51.6188C51.0854 12.16 50.6721 12.1733 50.3788 12.2C50.0854 12.2267 49.7388 12.32 49.3388 12.48C48.9388 12.64 48.5921 12.8933 48.2988 13.24C47.7921 13.88 47.5388 15.16 47.5388 17.08V28H44.0188Z" fill="#C29F7B"></path>
  <path d="M57.8469 28V17.08C57.8469 14.0133 58.4202 11.8933 59.5669 10.72C60.1269 10.1333 60.8069 9.69333 61.6069 9.4C62.4069 9.10667 63.1002 8.93333 63.6869 8.88C64.3002 8.82667 65.1269 8.8 66.1669 8.8H69.6869V12.16H65.4469C64.9135 12.16 64.5002 12.1733 64.2069 12.2C63.9135 12.2267 63.5669 12.32 63.1669 12.48C62.7669 12.64 62.4202 12.8933 62.1269 13.24C61.6202 13.88 61.3669 15.16 61.3669 17.08V28H57.8469ZM81.675 8.4C86.2083 8.58667 88.475 10.4667 88.475 14.04C88.475 18.4933 85.555 20.72 79.715 20.72H78.075V17.64H79.995C81.7817 17.64 83.0217 17.3733 83.715 16.84C84.4083 16.28 84.755 15.36 84.755 14.08C84.755 13.2533 84.4483 12.64 83.835 12.24C83.2217 11.8133 82.435 11.6 81.475 11.6C79.5817 11.6 78.0883 12.2667 76.995 13.6C75.9283 14.9333 75.395 16.5333 75.395 18.4C75.395 20.3733 75.9683 21.9733 77.115 23.2C78.2883 24.4267 79.8083 25.04 81.675 25.04C83.355 25.04 84.7283 24.6267 85.795 23.8L88.195 26.16C86.355 27.6533 84.1817 28.4 81.675 28.4C78.635 28.4 76.2083 27.5067 74.395 25.72C72.5817 23.9333 71.675 21.6267 71.675 18.8C71.675 15.6533 72.5683 13.1067 74.355 11.16C76.1417 9.21333 78.5817 8.29333 81.675 8.4ZM92.6703 8.8H99.5903C102.55 8.8 104.67 9.24 105.95 10.12C107.097 10.8933 107.817 11.8267 108.11 12.92C108.43 13.9867 108.59 15.4 108.59 17.16V28H105.07V17.2C105.07 16.72 105.057 16.32 105.03 16C105.004 15.6533 104.91 15.2267 104.75 14.72C104.59 14.1867 104.364 13.76 104.07 13.44C103.777 13.0933 103.35 12.8 102.79 12.56C102.23 12.2933 101.55 12.16 100.75 12.16H96.1903V28H92.6703V8.8ZM111.408 12.16L118.568 5V8.8H123.968V12.16H118.568V20.4C118.568 21.3333 118.714 22.1067 119.008 22.72C119.328 23.3333 119.781 23.7733 120.368 24.04C120.954 24.28 121.501 24.44 122.008 24.52C122.541 24.6 123.194 24.64 123.968 24.64V28C120.901 28 118.634 27.4133 117.168 26.24C115.701 25.0667 114.968 23.12 114.968 20.4V12.16H111.408ZM138.463 16.72V20.32C137.449 19.5467 136.209 19.16 134.743 19.16C133.489 19.16 132.516 19.4133 131.823 19.92C131.129 20.4 130.783 21.0933 130.783 22C130.783 23.76 132.089 24.64 134.703 24.64H139.983V17C139.983 13.7733 138.409 12.16 135.263 12.16H128.863V8.8H135.463C138.049 8.8 140.036 9.44 141.423 10.72C142.809 12 143.503 13.84 143.503 16.24V28H134.583C132.316 28 130.516 27.4933 129.183 26.48C127.849 25.4667 127.183 23.9867 127.183 22.04C127.183 20.0933 127.889 18.6133 129.303 17.6C130.716 16.5867 132.489 16.08 134.623 16.08C135.823 16.08 137.103 16.2933 138.463 16.72ZM147.9 20.4V-1.90735e-06H151.5V20.4C151.5 21.36 151.607 22.1467 151.82 22.76C152.06 23.3467 152.42 23.7733 152.9 24.04C153.38 24.28 153.847 24.44 154.3 24.52C154.753 24.6 155.353 24.64 156.1 24.64V28C153.113 28 150.993 27.4267 149.74 26.28C148.513 25.1333 147.9 23.1733 147.9 20.4Z" fill="white"></path>
</svg>
