<?xml version="1.0" standalone="no"?>
<!DOCTYPE svg PUBLIC "-//W3C//DTD SVG 20010904//EN"
 "http://www.w3.org/TR/2001/REC-SVG-20010904/DTD/svg10.dtd">
<svg version="1.0" xmlns="http://www.w3.org/2000/svg"
 width="500.000000pt" height="500.000000pt" viewBox="0 0 500.000000 500.000000"
 preserveAspectRatio="xMidYMid meet">
<metadata>
Created by potrace 1.14, written by Peter Selinger 2001-2017
</metadata>
<g transform="translate(0.000000,500.000000) scale(0.100000,-0.100000)"
fill="#000000" stroke="none">
<path d="M2419 4987 c-45 -17 -60 -28 -149 -107 -40 -36 -82 -73 -94 -83 -39
-34 -141 -125 -167 -148 -14 -13 -56 -51 -94 -84 -38 -33 -73 -65 -79 -70 -6
-6 -49 -44 -96 -85 -46 -41 -96 -86 -111 -100 -15 -14 -39 -36 -55 -49 -29
-25 -185 -162 -194 -171 -3 -3 -30 -27 -60 -55 -141 -127 -222 -199 -246 -218
-15 -11 -36 -30 -48 -41 -12 -12 -52 -48 -90 -81 -38 -33 -83 -73 -101 -90
-18 -16 -43 -39 -56 -50 -51 -44 -205 -180 -219 -195 -8 -8 -46 -42 -85 -75
-38 -33 -76 -67 -85 -75 -21 -20 -159 -143 -186 -167 -182 -157 -199 -183
-198 -293 0 -85 16 -124 70 -177 64 -62 83 -67 261 -71 l163 -4 2 -1162 3
-1163 30 -48 c35 -57 95 -102 151 -115 23 -6 783 -10 1815 -10 1977 0 1841 -5
1917 68 22 21 48 53 58 72 18 34 19 81 22 1197 l2 1161 163 4 c136 3 168 6
197 22 56 30 108 93 125 149 19 64 19 90 0 155 -16 53 -38 81 -146 177 -59 53
-185 165 -219 195 -37 32 -163 145 -180 160 -9 8 -34 30 -55 49 -37 32 -101
88 -259 230 -34 30 -68 61 -77 70 -9 9 -29 27 -45 40 -16 13 -49 43 -74 65
-25 23 -76 68 -114 101 -37 33 -78 69 -90 80 -12 11 -55 49 -96 85 -124 109
-162 143 -219 195 -64 58 -105 94 -141 125 -14 12 -59 52 -100 89 -41 37 -93
83 -115 102 -22 18 -49 43 -60 54 -11 11 -54 49 -95 85 -41 36 -77 67 -80 70
-35 37 -187 163 -210 175 -43 22 -146 29 -191 12z m-324 -2392 c115 -15 241
-81 346 -182 45 -42 62 -53 71 -45 7 6 42 38 77 71 60 57 186 129 252 145 154
36 291 21 429 -47 153 -75 272 -223 315 -392 16 -62 22 -188 11 -240 -3 -16
-8 -39 -10 -50 -10 -49 -47 -129 -89 -192 -31 -45 -182 -203 -454 -474 -373
-372 -412 -408 -459 -423 -29 -9 -72 -16 -95 -15 -97 5 -117 21 -565 471 -393
396 -422 428 -457 498 -69 141 -87 284 -53 425 38 162 163 317 317 393 87 43
110 49 194 59 28 3 51 6 52 7 3 3 67 -2 118 -9z"/>
</g>
</svg>
